<?xml version="1.0" encoding="UTF-8" standalone="no"?>
<svg
   xmlns:dc="http://purl.org/dc/elements/1.1/"
   xmlns:cc="http://creativecommons.org/ns#"
   xmlns:rdf="http://www.w3.org/1999/02/22-rdf-syntax-ns#"
   xmlns:svg="http://www.w3.org/2000/svg"
   xmlns="http://www.w3.org/2000/svg"
   xmlns:sodipodi="http://sodipodi.sourceforge.net/DTD/sodipodi-0.dtd"
   xmlns:inkscape="http://www.inkscape.org/namespaces/inkscape"
   width="23.009089mm"
   height="16.631948mm"
   viewBox="0 0 23.009089 16.631949"
   version="1.1"
   id="svg8037"
   inkscape:version="1.0.1 (1.0.1+r73)"
   sodipodi:docname="design_18.svg">
  <defs
     id="defs8031" />
  <sodipodi:namedview
     id="base"
     pagecolor="#ffffff"
     bordercolor="#666666"
     borderopacity="1.0"
     inkscape:pageopacity="0.0"
     inkscape:pageshadow="2"
     inkscape:zoom="1.33"
     inkscape:cx="41.734863"
     inkscape:cy="53.895637"
     inkscape:document-units="mm"
     inkscape:current-layer="layer1"
     inkscape:document-rotation="0"
     showgrid="false"
     fit-margin-top="1"
     fit-margin-right="1"
     fit-margin-bottom="1"
     fit-margin-left="1"
     inkscape:window-width="1853"
     inkscape:window-height="1025"
     inkscape:window-x="67"
     inkscape:window-y="27"
     inkscape:window-maximized="1" />
  <metadata
     id="metadata8034">
    <rdf:RDF>
      <cc:Work
         rdf:about="">
        <dc:format>image/svg+xml</dc:format>
        <dc:type
           rdf:resource="http://purl.org/dc/dcmitype/StillImage" />
        <dc:title></dc:title>
      </cc:Work>
    </rdf:RDF>
  </metadata>
  <g
     inkscape:label="Capa 1"
     inkscape:groupmode="layer"
     id="layer1"
     transform="translate(-94.790997,-62.290236)">
    <g
       id="g13460"
       transform="matrix(0.35277777,0,0,-0.35277777,-132.94869,154.1243)">
      <g
         id="g3220"
         transform="translate(666.2708,223.1467)">
        <path
           d="m 0,0 c 0,0 -4.151,3.311 -9.604,5.389 -3.036,1.156 -6.109,1.516 -7.739,1.627 -0.312,0.021 -0.389,0.442 -0.108,0.579 l 21.999,10.77 c 0,0 3.561,0.789 8.85,-0.925 5.851,-1.896 9.682,-6.141 9.682,-6.141 z"
           style="fill:#f4c151;fill-opacity:1;fill-rule:nonzero;stroke:none"
           id="path3222" />
      </g>
      <g
         id="g3224"
         transform="translate(673.0667,241.4391)">
        <path
           d="m 0,0 c -1.38,0 -2.177,-0.168 -2.193,-0.171 l -21.944,-10.751 c -0.01,-0.005 -0.041,-0.02 -0.032,-0.064 0.007,-0.038 0.034,-0.04 0.047,-0.041 1.594,-0.109 4.727,-0.468 7.81,-1.643 4.903,-1.868 8.808,-4.763 9.547,-5.33 L 15.867,-6.919 C 14.958,-5.999 11.443,-2.684 6.525,-1.09 3.807,-0.209 1.541,0 0,0 m -6.795,-18.542 c -0.056,0 -0.111,0.018 -0.156,0.054 -0.042,0.033 -4.187,3.312 -9.538,5.351 -3.023,1.152 -6.101,1.504 -7.667,1.611 -0.252,0.017 -0.455,0.195 -0.504,0.444 -0.049,0.251 0.073,0.496 0.303,0.609 l 22,10.77 c 0.204,0.052 3.742,0.805 9.037,-0.911 5.846,-1.895 9.751,-6.169 9.79,-6.212 0.052,-0.058 0.075,-0.137 0.059,-0.215 -0.014,-0.077 -0.064,-0.142 -0.134,-0.177 L -6.686,-18.517 c -0.034,-0.017 -0.072,-0.025 -0.109,-0.025"
           style="fill:#41404d;fill-opacity:1;fill-rule:nonzero;stroke:none"
           id="path3226" />
      </g>
      <g
         id="g3228"
         transform="translate(685.363,216.3615)">
        <path
           d="m 0,0 c -0.34,-0.167 -0.744,-0.133 -1.049,0.092 -1.245,0.919 -4.768,3.363 -9.12,5.021 -4.422,1.685 -8.927,1.677 -8.927,1.677 l 23.08,11.299 c 0,0 3.561,0.789 8.85,-0.925 4.908,-1.59 8.395,-4.834 9.391,-5.838 0.148,-0.148 0.102,-0.396 -0.085,-0.488 z"
           style="fill:#f4c151;fill-opacity:1;fill-rule:nonzero;stroke:none"
           id="path3230" />
      </g>
      <g
         id="g3232"
         transform="translate(667.2664,223.362)">
        <path
           d="m 0,0 c 1.59,-0.099 4.84,-0.443 8.017,-1.654 4.357,-1.66 7.871,-4.088 9.18,-5.054 0.228,-0.168 0.531,-0.194 0.79,-0.068 l 22.139,10.838 0.018,0.087 c -0.949,0.956 -4.424,4.2 -9.29,5.777 -5.151,1.67 -8.684,0.926 -8.719,0.918 z m 17.646,-7.356 c -0.265,0 -0.525,0.083 -0.746,0.246 -1.293,0.954 -4.762,3.351 -9.061,4.989 -4.316,1.644 -8.766,1.66 -8.837,1.66 v 0 h -0.001 c -0.116,0 -0.217,0.08 -0.243,0.193 -0.027,0.114 0.029,0.23 0.134,0.282 l 23.079,11.299 c 0.204,0.053 3.744,0.805 9.037,-0.912 C 35.982,8.79 39.53,5.478 40.5,4.501 40.626,4.374 40.682,4.199 40.652,4.021 40.623,3.845 40.508,3.692 40.347,3.613 L 18.208,-7.225 c -0.18,-0.087 -0.372,-0.131 -0.562,-0.131"
           style="fill:#41404d;fill-opacity:1;fill-rule:nonzero;stroke:none"
           id="path3234" />
      </g>
      <g
         id="g3236"
         transform="translate(685.363,217.7209)">
        <path
           d="m 0,0 c -0.34,-0.167 -0.744,-0.133 -1.049,0.092 -1.245,0.919 -4.768,3.363 -9.12,5.021 -4.422,1.685 -8.927,1.677 -8.927,1.677 l 23.08,11.299 c 0,0 3.561,0.789 8.85,-0.925 4.908,-1.59 8.395,-4.834 9.391,-5.838 0.148,-0.149 0.102,-0.396 -0.085,-0.488 z"
           style="fill:#dadada;fill-opacity:1;fill-rule:nonzero;stroke:none"
           id="path3238" />
      </g>
      <g
         id="g3240"
         transform="translate(667.2664,224.7214)">
        <path
           d="m 0,0 c 1.59,-0.099 4.84,-0.443 8.017,-1.654 4.357,-1.66 7.871,-4.088 9.18,-5.054 0.228,-0.167 0.53,-0.194 0.79,-0.068 l 22.139,10.838 0.018,0.087 c -0.949,0.956 -4.424,4.2 -9.29,5.777 -5.151,1.67 -8.684,0.926 -8.719,0.918 z m 18.097,-7.001 h 0.006 z m -0.451,-0.355 c -0.264,0 -0.525,0.083 -0.746,0.246 -1.293,0.954 -4.762,3.351 -9.061,4.989 -4.316,1.644 -8.766,1.66 -8.837,1.66 v 0 h -0.001 c -0.116,0 -0.217,0.08 -0.243,0.193 -0.027,0.114 0.029,0.23 0.134,0.282 l 23.079,11.299 c 0.204,0.052 3.744,0.804 9.037,-0.912 C 35.982,8.79 39.53,5.478 40.5,4.501 40.626,4.374 40.682,4.199 40.652,4.021 40.623,3.845 40.508,3.692 40.347,3.613 L 18.208,-7.226 h -10e-4 c -0.179,-0.087 -0.371,-0.13 -0.561,-0.13"
           style="fill:#41404d;fill-opacity:1;fill-rule:nonzero;stroke:none"
           id="path3242" />
      </g>
      <g
         id="g3244"
         transform="translate(666.2708,224.506)">
        <path
           d="m 0,0 c 0,0 -4.151,3.311 -9.604,5.389 -3.036,1.156 -6.109,1.515 -7.739,1.627 -0.312,0.021 -0.389,0.442 -0.108,0.579 l 21.999,10.77 c 0,0 3.561,0.789 8.85,-0.925 5.851,-1.896 9.682,-6.141 9.682,-6.141 z"
           style="fill:#dadada;fill-opacity:1;fill-rule:nonzero;stroke:none"
           id="path3246" />
      </g>
      <g
         id="g3248"
         transform="translate(673.0667,242.7985)">
        <path
           d="m 0,0 c -1.38,0 -2.177,-0.168 -2.193,-0.171 l -21.944,-10.751 c -0.01,-0.005 -0.041,-0.02 -0.032,-0.064 0.007,-0.038 0.034,-0.04 0.047,-0.041 1.594,-0.109 4.727,-0.468 7.81,-1.643 4.903,-1.868 8.808,-4.763 9.547,-5.33 L 15.867,-6.919 C 14.958,-5.999 11.443,-2.684 6.525,-1.09 3.807,-0.209 1.541,0 0,0 m -6.795,-18.542 c -0.056,0 -0.111,0.018 -0.156,0.054 -0.042,0.033 -4.187,3.312 -9.538,5.351 -3.023,1.152 -6.101,1.504 -7.667,1.611 -0.252,0.017 -0.455,0.195 -0.504,0.444 -0.049,0.251 0.073,0.496 0.303,0.609 l 22,10.77 c 0.204,0.053 3.742,0.805 9.037,-0.911 5.846,-1.895 9.751,-6.169 9.79,-6.212 0.052,-0.058 0.075,-0.138 0.059,-0.215 -0.014,-0.077 -0.064,-0.143 -0.134,-0.177 L -6.686,-18.517 c -0.034,-0.017 -0.072,-0.025 -0.109,-0.025"
           style="fill:#41404d;fill-opacity:1;fill-rule:nonzero;stroke:none"
           id="path3250" />
      </g>
      <g
         id="g3252"
         transform="translate(666.3005,226.0187)">
        <path
           d="m 0,0 c 0,0 -4.152,3.311 -9.605,5.389 -3.035,1.156 -6.108,1.515 -7.738,1.627 -0.312,0.021 -0.389,0.441 -0.109,0.579 l 22,10.77 c 0,0 3.561,0.789 8.85,-0.925 5.85,-1.896 9.682,-6.141 9.682,-6.141 z"
           style="fill:#dadada;fill-opacity:1;fill-rule:nonzero;stroke:none"
           id="path3254" />
      </g>
      <g
         id="g3256"
         transform="translate(673.0979,244.3122)">
        <path
           d="m 0,0 c -1.382,0 -2.178,-0.169 -2.195,-0.173 l -21.944,-10.75 c -0.009,-0.005 -0.04,-0.02 -0.032,-0.064 10e-4,0 0.047,-0.041 0.047,-0.041 1.592,-0.109 4.724,-0.467 7.811,-1.643 4.903,-1.868 8.807,-4.764 9.546,-5.33 L 15.865,-6.92 C 14.956,-6 11.441,-2.685 6.523,-1.091 3.803,-0.21 1.539,0 0,0 m -6.797,-18.544 c -0.056,0 -0.111,0.019 -0.156,0.055 -0.042,0.032 -4.187,3.312 -9.538,5.351 -3.026,1.153 -6.102,1.504 -7.667,1.611 -0.252,0.017 -0.454,0.195 -0.503,0.443 -0.05,0.251 0.072,0.497 0.303,0.61 l 21.999,10.77 c 0.205,0.052 3.745,0.804 9.037,-0.912 5.846,-1.894 9.751,-6.168 9.79,-6.211 0.053,-0.058 0.075,-0.138 0.059,-0.215 -0.014,-0.077 -0.064,-0.143 -0.134,-0.177 l -23.08,-11.3 c -0.035,-0.017 -0.073,-0.025 -0.11,-0.025"
           style="fill:#41404d;fill-opacity:1;fill-rule:nonzero;stroke:none"
           id="path3258" />
      </g>
      <g
         id="g3260"
         transform="translate(666.2908,227.6247)">
        <path
           d="m 0,0 c 0,0 -4.152,3.311 -9.605,5.389 -3.035,1.156 -6.108,1.516 -7.738,1.627 -0.312,0.021 -0.389,0.442 -0.109,0.579 l 22,10.77 c 0,0 3.561,0.789 8.85,-0.925 5.85,-1.895 9.682,-6.141 9.682,-6.141 z"
           style="fill:#ffffff;fill-opacity:1;fill-rule:nonzero;stroke:none"
           id="path3262" />
      </g>
      <g
         id="g3264"
         transform="translate(685.6272,242.2355)">
        <path
           d="m 0,0 -23.704,-11.587 c 2.732,-1.552 4.496,-2.955 4.496,-2.955 L 3.873,-3.244 C 3.873,-3.244 2.44,-1.663 0,0"
           style="fill:#dadada;fill-opacity:1;fill-rule:nonzero;stroke:none"
           id="path3266" />
      </g>
      <g
         id="g3268"
         transform="translate(666.2908,227.3747)">
        <path
           d="m 0,0 c -0.056,0 -0.112,0.019 -0.158,0.056 -0.041,0.033 -4.167,3.358 -9.534,5.349 -3.455,1.282 -6.518,1.522 -7.671,1.612 -0.264,0.031 -0.474,0.218 -0.521,0.457 -0.035,0.182 0.028,0.433 0.312,0.589 0.604,0.314 0.894,0.438 0.894,0.438 0.126,0.056 0.275,-0.004 0.328,-0.13 0.055,-0.127 -0.004,-0.274 -0.13,-0.329 -0.006,-0.002 -0.285,-0.123 -0.856,-0.419 -0.043,-0.024 -0.057,-0.047 -0.058,-0.051 0,-0.012 0.027,-0.051 0.08,-0.058 1.162,-0.09 4.275,-0.334 7.796,-1.64 4.919,-1.825 8.81,-4.755 9.549,-5.33 l 22.632,11.08 c -0.91,0.92 -4.424,4.235 -9.342,5.829 -5.153,1.671 -8.685,0.926 -8.719,0.918 L -8.114,12.138 c -0.123,-0.06 -0.273,-0.01 -0.334,0.114 -0.061,0.124 -0.01,0.274 0.115,0.335 L 4.438,18.84 c 0.205,0.052 3.743,0.804 9.037,-0.912 5.847,-1.894 9.751,-6.168 9.79,-6.211 0.053,-0.058 0.075,-0.138 0.06,-0.215 C 23.31,11.425 23.26,11.359 23.19,11.325 L 0.11,0.025 C 0.075,0.008 0.038,0 0,0"
           style="fill:#41404d;fill-opacity:1;fill-rule:nonzero;stroke:none"
           id="path3270" />
      </g>
      <g
         id="g3272"
         transform="translate(650.8118,235.9352)">
        <path
           d="m 0,0 c -0.092,0 -0.181,0.051 -0.225,0.14 -0.06,0.124 -0.009,0.274 0.115,0.335 l 3.25,1.59 C 3.261,2.125 3.413,2.075 3.474,1.951 3.535,1.827 3.483,1.677 3.359,1.616 L 0.11,0.025 C 0.075,0.008 0.037,0 0,0"
           style="fill:#41404d;fill-opacity:1;fill-rule:nonzero;stroke:none"
           id="path3274" />
      </g>
      <g
         id="g3276"
         transform="translate(666.2908,227.6247)">
        <path
           d="m 0,0 c 0,0 1.683,3.36 1.716,10.004 0.019,3.636 -1.456,7.91 -1.964,9.273 -0.093,0.25 0.025,0.528 0.269,0.639 l 21.361,9.656 c 0.253,0.115 0.549,0.008 0.669,-0.243 0.651,-1.362 2.52,-5.632 2.536,-9.839 0.023,-5.809 -1.507,-8.191 -1.507,-8.191 z"
           style="fill:#f4c151;fill-opacity:1;fill-rule:nonzero;stroke:none"
           id="path3278" />
      </g>
      <g
         id="g3280"
         transform="translate(685.363,219.217)">
        <path
           d="m 0,0 c -0.34,-0.167 -0.744,-0.133 -1.049,0.092 -1.245,0.919 -4.768,3.363 -9.12,5.021 -4.422,1.685 -8.927,1.677 -8.927,1.677 l 23.08,11.299 c 0,0 3.561,0.789 8.85,-0.925 4.908,-1.59 8.395,-4.834 9.391,-5.838 0.148,-0.149 0.102,-0.396 -0.085,-0.488 z"
           style="fill:#dadada;fill-opacity:1;fill-rule:nonzero;stroke:none"
           id="path3282" />
      </g>
      <g
         id="g3284"
         transform="translate(667.2664,226.2175)">
        <path
           d="m 0,0 c 1.59,-0.099 4.84,-0.443 8.017,-1.654 4.353,-1.659 7.87,-4.087 9.18,-5.054 0.228,-0.167 0.53,-0.195 0.79,-0.068 l 22.139,10.838 0.018,0.087 c -0.949,0.956 -4.424,4.2 -9.29,5.777 -5.153,1.669 -8.684,0.926 -8.719,0.918 z m 18.097,-7.001 h 0.006 z m -0.451,-0.355 c -0.264,0 -0.525,0.083 -0.746,0.246 -1.294,0.955 -4.766,3.352 -9.061,4.989 -4.316,1.644 -8.766,1.66 -8.837,1.66 v 0 h -0.001 c -0.116,0 -0.217,0.08 -0.243,0.193 -0.027,0.114 0.029,0.23 0.134,0.282 l 23.079,11.299 c 0.204,0.053 3.744,0.804 9.037,-0.912 C 35.982,8.79 39.53,5.478 40.5,4.501 40.626,4.374 40.682,4.199 40.652,4.021 40.623,3.845 40.508,3.692 40.347,3.613 L 18.208,-7.226 h -10e-4 c -0.179,-0.087 -0.371,-0.13 -0.561,-0.13"
           style="fill:#41404d;fill-opacity:1;fill-rule:nonzero;stroke:none"
           id="path3286" />
      </g>
      <g
         id="g3288"
         transform="translate(685.386,220.8049)">
        <path
           d="m 0,0 c -0.34,-0.167 -0.744,-0.133 -1.049,0.092 -1.245,0.919 -4.768,3.363 -9.119,5.021 -4.423,1.685 -8.927,1.677 -8.927,1.677 L 3.984,18.089 c 0,0 3.561,0.789 8.85,-0.924 4.908,-1.591 8.395,-4.835 9.392,-5.839 0.147,-0.148 0.101,-0.395 -0.086,-0.487 z"
           style="fill:#ffffff;fill-opacity:1;fill-rule:nonzero;stroke:none"
           id="path3290" />
      </g>
      <g
         id="g3292"
         transform="translate(698.1985,237.945)">
        <path
           d="m 0,0 c -5.289,1.714 -8.85,0.925 -8.85,0.925 l -23.079,-11.299 c 0,0 4.504,0.008 8.927,-1.677 1.117,-0.426 2.179,-0.903 3.162,-1.393 L 3.494,-1.458 C 2.521,-0.958 1.143,-0.37 0,0"
           style="fill:#dadada;fill-opacity:1;fill-rule:nonzero;stroke:none"
           id="path3294" />
      </g>
      <g
         id="g3296"
         transform="translate(684.9348,220.4499)">
        <path
           d="m 0,0 c -0.264,0 -0.525,0.083 -0.746,0.246 -1.293,0.954 -4.765,3.351 -9.06,4.988 -4.317,1.645 -8.775,1.661 -8.838,1.661 v 0 c -0.116,0 -0.217,0.08 -0.244,0.193 -0.026,0.114 0.03,0.23 0.134,0.282 L 4.325,18.668 c 0.204,0.054 3.744,0.806 9.037,-0.911 1.728,-0.56 3.451,-1.378 5.123,-2.433 0.117,-0.074 0.152,-0.228 0.077,-0.345 -0.072,-0.117 -0.226,-0.152 -0.344,-0.078 -1.636,1.033 -3.322,1.833 -5.01,2.38 -5.151,1.67 -8.684,0.926 -8.719,0.919 L -17.646,7.356 c 1.59,-0.099 4.84,-0.444 8.018,-1.655 4.353,-1.659 7.87,-4.086 9.18,-5.053 C -0.221,0.479 0.083,0.453 0.341,0.58 l 22.139,10.838 0.019,0.086 c -0.382,0.386 -1.196,1.166 -2.357,2.056 -0.11,0.084 -0.13,0.24 -0.046,0.35 0.083,0.111 0.24,0.131 0.35,0.046 1.184,-0.908 2.017,-1.705 2.408,-2.099 0.126,-0.128 0.182,-0.302 0.153,-0.479 -0.03,-0.177 -0.145,-0.33 -0.306,-0.409 L 0.562,0.13 C 0.383,0.043 0.19,0 0,0"
           style="fill:#41404d;fill-opacity:1;fill-rule:nonzero;stroke:none"
           id="path3298" />
      </g>
      <g
         id="g3300"
         transform="translate(683.9338,233.739)">
        <path
           d="m 0,0 c 0,0 -3.286,-9.895 -8.74,-7.817 -4.422,1.685 -8.927,1.677 -8.927,1.677 L 5.414,5.159 c 0,0 3.56,0.79 8.849,-0.924 5.851,-1.896 8.817,7.064 8.817,7.064 z"
           style="fill:#ffffff;fill-opacity:1;fill-rule:nonzero;stroke:none"
           id="path3302" />
      </g>
      <g
         id="g3304"
         transform="translate(695.2249,238.9875)">
        <path
           d="m 0,0 c 0.932,-0.171 1.953,-0.421 3.05,-0.776 4.698,-1.521 7.508,4.406 8.282,6.324 z m -27.958,-11.177 c 1.589,-0.099 4.839,-0.444 8.017,-1.655 1.034,-0.393 2.062,-0.354 3.058,0.118 3.341,1.585 5.336,7.485 5.355,7.544 0.021,0.064 0.067,0.116 0.128,0.146 l 9.718,4.757 C -4.237,0.001 -5.8,-0.329 -5.823,-0.333 Z m 9.422,-2.425 c -0.525,0 -1.053,0.101 -1.583,0.303 -4.347,1.656 -8.822,1.673 -8.838,1.661 v 0 c -0.116,0 -0.217,0.08 -0.244,0.193 -0.026,0.113 0.03,0.23 0.134,0.281 l 23.08,11.299 c 0.149,0.038 2.061,0.447 5.135,0.005 l 12.531,6.135 c 0.092,0.044 0.2,0.029 0.274,-0.036 0.076,-0.067 0.105,-0.172 0.073,-0.267 -0.03,-0.093 -3.107,-9.175 -9.13,-7.224 -1.347,0.437 -2.584,0.708 -3.675,0.871 l -10.308,-5.047 c -0.288,-0.827 -2.254,-6.158 -5.581,-7.738 -0.613,-0.291 -1.237,-0.436 -1.868,-0.436"
           style="fill:#41404d;fill-opacity:1;fill-rule:nonzero;stroke:none"
           id="path3306" />
      </g>
      <g
         id="g3308"
         transform="translate(666.2908,227.3747)">
        <path
           d="m 0,0 c -0.065,0 -0.129,0.025 -0.177,0.074 -0.076,0.076 -0.094,0.192 -0.047,0.288 0.017,0.033 1.658,3.397 1.691,9.894 0.018,3.619 -1.487,7.944 -1.949,9.183 -0.138,0.371 0.038,0.79 0.4,0.954 l 15.041,6.8 c 0.126,0.055 0.274,0 0.331,-0.125 0.057,-0.126 0.001,-0.274 -0.125,-0.331 l -15.04,-6.8 C 0,19.882 -0.06,19.739 -0.013,19.614 0.456,18.355 1.986,13.958 1.967,10.253 1.941,5.184 0.975,2.033 0.492,0.769 l 22.396,10.965 c 0.254,0.579 1.786,4.315 1.381,9.186 -0.267,3.207 -1.951,7.343 -2.461,8.534 -0.027,0.063 -0.078,0.112 -0.141,0.137 -0.066,0.025 -0.137,0.022 -0.205,-0.007 l -2.366,-1.07 c -0.126,-0.056 -0.273,0 -0.33,0.125 -0.058,0.126 -10e-4,0.274 0.125,0.331 l 2.366,1.07 c 0.189,0.084 0.4,0.09 0.59,0.017 0.19,-0.074 0.339,-0.218 0.42,-0.406 0.663,-1.549 2.234,-5.497 2.5,-8.69 0.451,-5.419 -1.384,-9.354 -1.462,-9.519 C 23.281,11.391 23.241,11.35 23.19,11.325 L 0.11,0.025 C 0.075,0.008 0.038,0 0,0"
           style="fill:#41404d;fill-opacity:1;fill-rule:nonzero;stroke:none"
           id="path3310" />
      </g>
      <g
         id="g3312"
         transform="translate(702.4509,238.5119)">
        <path
           d="m 0,0 -23.931,-12.429 c 2.231,1.229 3.954,3.719 5.414,7.656 L 3.863,6.183 C 4.116,6.307 4.39,6.055 4.282,5.796 3.705,4.399 2.245,1.365 0,0"
           style="fill:#dadada;fill-opacity:1;fill-rule:nonzero;stroke:none"
           id="path3314" />
      </g>
      <g
         id="g3316"
         transform="translate(702.4514,238.5119)">
        <path
           d="m 0,0 h 0.006 z m -18.317,-4.954 c -1.003,-2.68 -2.116,-4.661 -3.413,-6.05 L -0.123,0.218 C 2.082,1.563 3.53,4.633 4.051,5.892 4.024,5.963 3.999,5.971 3.974,5.958 Z m -5.614,-7.725 c -0.09,0 -0.175,0.048 -0.22,0.133 -0.065,0.12 -0.02,0.27 0.099,0.337 2.152,1.184 3.836,3.574 5.301,7.522 0.022,0.061 0.066,0.11 0.124,0.138 L 3.753,6.408 C 3.964,6.51 4.212,6.473 4.381,6.313 4.55,6.155 4.602,5.914 4.514,5.7 3.842,4.079 2.381,1.154 0.13,-0.214 0.125,-0.216 0.12,-0.219 0.115,-0.222 L -23.816,-12.65 c -0.037,-0.02 -0.076,-0.029 -0.115,-0.029"
           style="fill:#41404d;fill-opacity:1;fill-rule:nonzero;stroke:none"
           id="path3318" />
      </g>
      <g
         id="g3320"
         transform="translate(679.4412,235.3967)">
        <path
           d="M 0,0 C -0.022,0 -0.044,0.003 -0.067,0.009 -0.2,0.046 -0.278,0.184 -0.241,0.317 1.578,6.866 -1.003,14.29 -1.304,15.115 c -0.047,0.13 0.02,0.273 0.15,0.32 0.131,0.047 0.273,-0.02 0.32,-0.149 C -0.335,13.915 2.063,6.744 0.241,0.183 0.21,0.072 0.11,0 0,0"
           style="fill:#41404d;fill-opacity:1;fill-rule:nonzero;stroke:none"
           id="path3322" />
      </g>
      <g
         id="g3324"
         transform="translate(677.2629,234.3444)">
        <path
           d="M 0,0 C -0.02,0 -0.041,0.002 -0.062,0.008 -0.195,0.042 -0.276,0.178 -0.242,0.312 0.012,1.313 0.192,2.371 0.293,3.455 0.306,3.592 0.429,3.686 0.565,3.681 0.703,3.668 0.804,3.546 0.791,3.409 0.688,2.299 0.503,1.216 0.242,0.188 0.213,0.075 0.112,0 0,0"
           style="fill:#41404d;fill-opacity:1;fill-rule:nonzero;stroke:none"
           id="path3326" />
      </g>
      <g
         id="g3328"
         transform="translate(677.6829,243.1057)">
        <path
           d="M 0,0 C -0.124,0 -0.231,0.092 -0.248,0.219 -0.647,3.365 -1.477,5.73 -1.721,6.381 -1.77,6.51 -1.705,6.654 -1.575,6.703 -1.447,6.752 -1.302,6.687 -1.253,6.557 -1.004,5.894 -0.158,3.482 0.249,0.281 0.266,0.145 0.169,0.02 0.032,0.002 0.021,0 0.011,0 0,0"
           style="fill:#41404d;fill-opacity:1;fill-rule:nonzero;stroke:none"
           id="path3330" />
      </g>
      <g
         id="g3332"
         transform="translate(670.2039,230.9338)">
        <path
           d="m 0,0 c -0.026,0 -0.053,0.004 -0.08,0.013 -0.13,0.044 -0.201,0.186 -0.157,0.317 1.459,4.352 0.953,8.949 0.271,12.039 -0.03,0.134 0.055,0.268 0.19,0.298 0.138,0.029 0.268,-0.056 0.298,-0.191 C 1.217,9.325 1.733,4.631 0.237,0.17 0.202,0.066 0.104,0 0,0"
           style="fill:#41404d;fill-opacity:1;fill-rule:nonzero;stroke:none"
           id="path3334" />
      </g>
      <g
         id="g3336"
         transform="translate(670.0593,244.7878)">
        <path
           d="m 0,0 c -0.109,0 -0.209,0.072 -0.241,0.182 -0.182,0.644 -0.344,1.13 -0.449,1.425 -0.046,0.13 0.022,0.273 0.152,0.32 0.127,0.047 0.272,-0.022 0.319,-0.153 C -0.112,1.473 0.055,0.975 0.241,0.318 0.278,0.185 0.201,0.047 0.068,0.009 0.045,0.003 0.022,0 0,0"
           style="fill:#41404d;fill-opacity:1;fill-rule:nonzero;stroke:none"
           id="path3338" />
      </g>
      <g
         id="g3340"
         transform="translate(673.3562,235.6735)">
        <path
           d="m 0,0 c -0.008,0 -0.017,0 -0.025,0.001 -0.138,0.014 -0.238,0.137 -0.224,0.274 0.559,5.579 -1.099,10.58 -1.437,11.527 -0.046,0.13 0.021,0.273 0.151,0.319 0.131,0.046 0.273,-0.021 0.32,-0.151 C -0.871,11.006 0.818,5.911 0.248,0.225 0.235,0.096 0.126,0 0,0"
           style="fill:#41404d;fill-opacity:1;fill-rule:nonzero;stroke:none"
           id="path3342" />
      </g>
      <g
         id="g3344"
         transform="translate(675.1248,233.3112)">
        <path
           d="m 0,0 c -0.02,0 -0.039,0.002 -0.059,0.007 -0.134,0.033 -0.216,0.168 -0.184,0.302 1.691,6.936 -0.824,14.048 -1.116,14.837 -0.048,0.129 0.018,0.273 0.148,0.321 0.13,0.048 0.274,-0.019 0.321,-0.148 C -0.592,14.517 1.969,7.271 0.243,0.191 0.215,0.077 0.113,0 0,0"
           style="fill:#41404d;fill-opacity:1;fill-rule:nonzero;stroke:none"
           id="path3346" />
      </g>
      <g
         id="g3348"
         transform="translate(683.8489,237.5261)">
        <path
           d="m 0,0 c -0.02,0 -0.04,0.002 -0.06,0.007 -0.134,0.034 -0.216,0.169 -0.183,0.303 1.729,6.97 -1.058,13.822 -1.382,14.58 -0.054,0.127 0.005,0.274 0.132,0.328 0.127,0.055 0.274,-0.005 0.328,-0.132 C -0.835,14.313 2.011,7.318 0.243,0.19 0.214,0.076 0.112,0 0,0"
           style="fill:#41404d;fill-opacity:1;fill-rule:nonzero;stroke:none"
           id="path3350" />
      </g>
      <g
         id="g3352"
         transform="translate(681.6213,236.4499)">
        <path
           d="m 0,0 c -0.021,0 -0.042,0.002 -0.062,0.008 -0.134,0.034 -0.215,0.171 -0.18,0.304 1.632,6.293 -0.739,13.345 -1.231,14.694 -0.048,0.13 0.019,0.273 0.149,0.321 0.13,0.048 0.273,-0.02 0.321,-0.15 C -0.502,13.803 1.911,6.624 0.242,0.187 0.213,0.075 0.111,0 0,0"
           style="fill:#41404d;fill-opacity:1;fill-rule:nonzero;stroke:none"
           id="path3354" />
      </g>
      <g
         id="g3356"
         transform="translate(687.9084,239.487)">
        <path
           d="m 0,0 c -0.025,0 -0.051,0.004 -0.076,0.012 -0.132,0.042 -0.204,0.182 -0.162,0.314 2.044,6.401 -0.697,13.255 -1.267,14.565 -0.055,0.126 0.003,0.274 0.13,0.328 0.125,0.056 0.274,-0.003 0.329,-0.129 C -0.464,13.752 2.336,6.745 0.238,0.174 0.204,0.068 0.105,0 0,0"
           style="fill:#41404d;fill-opacity:1;fill-rule:nonzero;stroke:none"
           id="path3358" />
      </g>
      <g
         id="g3360"
         transform="translate(685.8293,238.4831)">
        <path
           d="m 0,0 c -0.022,0 -0.045,0.003 -0.066,0.009 -0.134,0.037 -0.211,0.175 -0.175,0.308 1.097,3.956 0.544,8.133 -0.113,10.94 -0.031,0.135 0.052,0.269 0.187,0.301 0.133,0.031 0.27,-0.053 0.3,-0.186 C 0.804,8.507 1.366,4.242 0.241,0.183 0.21,0.072 0.109,0 0,0"
           style="fill:#41404d;fill-opacity:1;fill-rule:nonzero;stroke:none"
           id="path3362" />
      </g>
      <g
         id="g3364"
         transform="translate(685.2844,251.2004)">
        <path
           d="m 0,0 c -0.108,0 -0.208,0.071 -0.24,0.18 -0.289,0.985 -0.554,1.706 -0.687,2.048 -0.05,0.128 0.015,0.273 0.144,0.323 C -0.656,2.599 -0.511,2.538 -0.46,2.408 -0.325,2.059 -0.055,1.323 0.24,0.32 0.278,0.188 0.203,0.049 0.07,0.01 0.047,0.003 0.023,0 0,0"
           style="fill:#41404d;fill-opacity:1;fill-rule:nonzero;stroke:none"
           id="path3366" />
      </g>
    </g>
  </g>
</svg>
